 <svg xmlns="http://www.w3.org/2000/svg" viewBox="0 0 143.09 266.92">
                    <defs>
                      <style>
                        .cls-1 {
                          isolation: isolate;
                        }

                        .cls-15,
                        .cls-2 {
                          fill: #f19260;
                        }

                        .cls-3 {
                          opacity: 0.8;
                        }

                        .cls-3,
                        .cls-9 {
                          mix-blend-mode: multiply;
                        }

                        .cls-4 {
                          fill: #d29393;
                        }

                        .cls-5 {
                          fill: #16294c;
                        }

                        .cls-6 {
                          fill: #262626;
                        }

                        .cls-7 {
                          fill: #fff;
                        }

                        .cls-8 {
                          fill: #ea3131;
                        }

                        .cls-10 {
                          fill: #a09f9f;
                        }

                        .cls-11 {
                          fill: #5493ce;
                        }

                        .cls-12 {
                          fill: #2b9044;
                        }

                        .cls-12,
                        .cls-13,
                        .cls-14,
                        .cls-15 {
                          fill-rule: evenodd;
                        }

                        .cls-13 {
                          fill: #a1a0a0;
                        }

                        .cls-16 {
                          fill: #faaf87;
                        }

                        .cls-17 {
                          fill: #ffd83a;
                        }

                        .cls-18 {
                          fill: #663317;
                        }

                        .cls-19 {
                          fill: #feeb9b;
                        }

                        .cls-20 {
                          fill: #f8d95d;
                        }

                        .cls-21 {
                          fill: #f7dfb5;
                        }

                        .cls-22 {
                          fill: #8e8e8e;
                        }

                        #world_6 {
                          transform-box: fill-box;
                          transform-origin: 50% 50%;
                          animation: spin 3s linear infinite;
                        }

                        @keyframes spin {
                          0% { transform: rotate(0deg); }
                          100% { transform: rotate(-360deg); }
                          }
              
                      </style>
                    </defs>
                    <title>trump</title>
                    <g class="cls-1">
                      <g id="Layer_4" data-name="Layer 4">
                        <g id="body_6" data-name="body 6">
                          <path
                            d="M122.93,196.84a20.16,20.16,0,1,0-16.26-32q-.17-2.64-.54-5.16s.87,1,4.8-2.4,12.48-14.4,12.48-14.4l3.6-1.92s7.56,5.32,8.64,0c0,0,2.7.14,3.6-1.68s-3.12-5.28-3.12-5.28,2.66-.06,2.88-2.4-5.28-2.88-5.28-2.88,1.28-3.79-.48-5-5.52,2.45-8.88,2.88-9.67,0-13.92,6.48c0,0-3.81,5-5.28,5.28s-3.45-5.26-3.6-10.8-61.46-22.51-66-18.24-14,14-17,20.88-5.24,32.61-2.4,39.12,16.08,8.4,16.08,8.4,4.62,11.37,7,18.72,4.24,16.21,13.2,14.4a33.81,33.81,0,0,0,12.72,9.12c3.53,1.37,8.26,13.3,8.4,16.56s-3.36,14.64-3.36,14.64S68,258.47,68,263.32c0,0,1.66,3.6,11.52,3.6s18.34-1.31,19.68-2.88-1.88-10.54-9.84-11.52c0,0,3.59-17.7,4.08-20.16s-2.16-7.92-2.16-7.92,1-.46,2.16,2.16,4.58,11.92,5,17.52.24,9.83,2.4,10.56,11.89.1,17.28-.72,11.18-4.84,10.56-8.64-13-5.52-13-5.52-2.51-25.15-4.08-28.8-8.4-9.36-8.4-9.36,1.41-6.13,2.47-14.51A20.1,20.1,0,0,0,122.93,196.84Z"
                            transform="translate(0 0)" />
                          <path class="cls-2"
                            d="M64.85,172.84c-1.34-.7-6.24-1.2-6.24-1.2s5-.85,6.48-.24a3,3,0,0,1,2.16,3.12,5.35,5.35,0,0,0,0,1.68,8.61,8.61,0,0,0,1.2-4.32c0-2.49-3.34-3-5.52-3.36,0,0,2.48-.93,4.08-.24a5.35,5.35,0,0,1,2.4,2.64,2.92,2.92,0,0,0-1.68-3.12c-2.07-1-3.89-2.33-6.48-1.68s-9.6,1.92-9.6,1.92-5.88,4.46-2.4,11c1.37,2.59,8.4,1.68,8.4,1.68l-1.44-1a5.31,5.31,0,0,1,2.4-.24c1.83.42.21,3.49,1.44,3.84s2.6-.49,2.88-3.6-.65-3.62-2.88-4.08a8.39,8.39,0,0,1-3.6-1.68,17.49,17.49,0,0,1,4.08.48c2.22.53,3.89,1.63,3.84,3.12s0,3.36,0,3.36A6.29,6.29,0,0,0,66,177.3C66.21,175,66.17,173.54,64.85,172.84Zm4.32,2.88-3.6,6s.27,1.91,1.92.24S70.85,175.93,69.17,175.72Zm61.2-38.88c.2-1.41-2.52-1.5-5-2.4s-4.54-3.39-7.2-2.88a9.77,9.77,0,0,1,3.84-.48,19,19,0,0,1,5-1.2c2.3-.11,4.58-.75,5-2.16s1-3-.72-2.4-4.8,2.89-8.16,2.88S114,129.77,113.09,134c-.76,1.47.57,5.91,3.36,7.2s6.21.38,8.64-1.68a3.22,3.22,0,0,0-3.36-.72,6.56,6.56,0,0,1-3.36.48s1.72-2.08,3.6-2.16a10.55,10.55,0,0,1,4.8,1C127.84,138.58,130.18,138.25,130.37,136.84Zm-5-4.56s5.34.74,7.44.72,4.72-1,3.84-1.92-3.84-1-3.84-1-1.89.8-3.36,1.44A14.13,14.13,0,0,1,125.33,132.28Zm12,5.28c-.36-1.43-2.64-2.88-2.64-2.88l-5-.24a4,4,0,0,1,2.64,2.64s-.46,0,1.44,1S137.7,139,137.33,137.56ZM131.81,139a5.27,5.27,0,0,1-3.12,1,8.49,8.49,0,0,0,3.6,1.68C134,141.83,135.06,140.05,131.81,139Z"
                            transform="translate(0 0)" />
                          <g class="cls-3">
                            <path class="cls-4"
                              d="M65.09,171.4a3,3,0,0,1,2.16,3.12,5.35,5.35,0,0,0,0,1.68,6.57,6.57,0,0,0,1.32-2.9c-.31.13-.84,0-.84-.46a3.15,3.15,0,0,0-2.64-2.64c-1.56-.36-6.32,1.44-6.32,1.44a7.28,7.28,0,0,1,1.63.07C62,171.53,64.19,171.05,65.09,171.4Zm-2.64-3.12c.32,0,.65.05,1,.09a8.13,8.13,0,0,1,2.24-.34,6.11,6.11,0,0,0-1.77-.71C62.57,167.2,59.21,168.16,62.45,168.28Zm6,1.17a6.21,6.21,0,0,1,.91,1.47,3.2,3.2,0,0,0-.08-1.29A2.3,2.3,0,0,1,68.5,169.45Zm60.91-37.89a14.13,14.13,0,0,1-4.08.72s5.34.74,7.44.72c1.81,0,4-.77,4-1.55a12.11,12.11,0,0,1-3.53.35,14.19,14.19,0,0,1-3.49-.39Zm-9.36.24,1.48.53a4.94,4.94,0,0,0-3.4-.77,9.77,9.77,0,0,1,3.84-.48,19,19,0,0,1,5-1.2c2.3-.11,4.58-.75,5-2.16a3.38,3.38,0,0,0,.11-.34,11.8,11.8,0,0,1-3.47,1.06c-1.79.45-5.48,1.33-6.72,1.68s-5,1.68-5,1.68A5.34,5.34,0,0,1,120.05,131.8ZM69.17,175.72l-3.6,6s.27,1.91,1.92.24a7.19,7.19,0,0,0,1.06-1.42A1.51,1.51,0,0,1,67,180l2.35-4.26A1.06,1.06,0,0,0,69.17,175.72Zm-8.4,2.88c-.36-1.2-4.44-.48-7-1.2s-3.48-2.4-2.64-5.28a9.22,9.22,0,0,1,2.3-4.41l-1.82.33s-5.88,4.46-2.4,11c1.37,2.59,8.4,1.68,8.4,1.68l-1.44-1a5.31,5.31,0,0,1,2.4-.24c1.83.42.21,3.49,1.44,3.84s2.29-.32,2.74-2.63A4.19,4.19,0,0,1,60.77,178.6Zm73.44-41.76a20.11,20.11,0,0,0-2.2-2.28l-2.36-.12a4,4,0,0,1,2.64,2.64s-.46,0,1.44,1c1.55.76,3.17.9,3.54.17C136.43,138.51,134.94,137.83,134.21,136.84Zm-2.4,2.16a5.27,5.27,0,0,1-3.12,1,8.49,8.49,0,0,0,3.6,1.68C134,141.83,135.06,140.05,131.81,139Zm-1.44-2.16a.82.82,0,0,0-.28-.77.57.57,0,0,1,0,.29c-.14,1-1.82,1.15-3.6.48s-4.81-1.43-6.24-.72-4,1.71-5-.24A8.9,8.9,0,0,1,114,132a5.43,5.43,0,0,0-.93,2c-.76,1.47.57,5.91,3.36,7.2s6.21.38,8.64-1.68a3.22,3.22,0,0,0-3.36-.72,6.56,6.56,0,0,1-3.36.48s1.72-2.08,3.6-2.16a10.55,10.55,0,0,1,4.8,1C127.84,138.58,130.18,138.25,130.37,136.84ZM64.61,176c-.24-1.32-1.56-2.16-3.36-2.64s-5.52.48-5.52.48l.76.24a18.22,18.22,0,0,1,4,.48c2.22.53,3.89,1.63,3.84,3.12s0,3.36,0,3.36a6.09,6.09,0,0,0,1.46-2.95A3.7,3.7,0,0,1,64.61,176Z"
                              transform="translate(0 0)" />
                          </g>
                          <path class="cls-5"
                            d="M58.61,133.48S44.07,120.75,38,111.88c0,0,.7,13,2.88,21.12Zm-8.4,13.68,32.16,8.4c-8.06-6.87-22.56-20.64-22.56-20.64H50Zm44.64-9.6L91.73,134l-6.48.72c.47,5.26-1.68,20.16-1.68,20.16C86.68,151.3,94.85,137.56,94.85,137.56Zm-5.52,53.28a128.85,128.85,0,0,0-6-32.64l-35.52-9.12.48-13.68-9.36-.72a163.47,163.47,0,0,1-2.64-21.36s-9,8.37-12.24,12.48-4.35,8.87-5.52,16.08-2.69,23.54.24,27.6,13.66,5.73,19,7.68A90.8,90.8,0,0,0,46.85,180C44,168.71,50.69,165.4,50.69,165.4s-3.94-1.53-6.72-2.88-6-3.13-10.32-3.12-11,5-11,5c5-7.72,12.24-7.2,12.24-7.2-3.63-1.75-10.56-.72-10.56-.72,7.22-3.33,12.24-.48,12.24-.48.61-14.88.79-17.66-1.92-22.08s-11.52-5.76-11.52-5.76a16.9,16.9,0,0,1,11,2.16c5.16,3.27,5.35,11.57,4.8,16.56a83.73,83.73,0,0,0-.48,9.36v1.92c3,.05,10.3,4.59,13.92,5.52s3.12,2.64,3.12,2.64a17,17,0,0,1,7-1.68c3.35.13,7.94,2.75,8.16,4.56a15.38,15.38,0,0,1-.48,4.56c2.06.82,1.5,4.29.48,5.76s-2.23,4.56-3.84,4.56a4.41,4.41,0,0,1-2.88-1.44s-1.69,2.83-3.84,2.4S58.37,182,58.37,182a8,8,0,0,1-5.28,1c-2.87-.56-3.36-1.44-3.36-1.44a2.44,2.44,0,0,1-2.88.72c-1.9-.67-11.76-3.84-11.76-3.84s9.14,26.4,11.28,28.8,5.84,2.81,17.52-2.88S89.33,190.84,89.33,190.84ZM85,157c5.41,15.92,6.24,34.32,6.24,34.32l7.68,7.92,2.16,1.2c1.19-3.76,3.36-15.36,3.36-15.36-4.41-9.38.48-18.24.48-18.24a181.08,181.08,0,0,0-3.84-21.12c-1.75-6.56-4.08-14.4-4.08-14.4L94.13,133l3.36,4.56Zm29.28-6.24c2.46-3.42,6-7.44,6-7.44s-8.36.53-9.12-8.16a21.45,21.45,0,0,1-4.56,5.28l-1.2,4.32s-.48-3.52-1.68-4.8-3.46-5.56-3.84-11.28l-1.68,1.68a203.8,203.8,0,0,1,7.44,27.12S111.84,154.19,114.29,150.76ZM113.81,240s-3.32-21.58-4.32-26.88-6-8.49-9.6-10.32S85,196.36,85,196.36s-6.65,3.27-13.44,6.48-15.84,7.44-15.84,7.44c4,3.55,6.23,6,13.2,7.2s17.85,2.53,22.56,3.84a13.14,13.14,0,0,1,7,4.56l-3.12-1.2s.76,2.42,2.16,6.24,3.36,12.72,3.36,12.72C104.73,243.57,113.81,240,113.81,240Zm-27.6,12.24s4.12-17.64,4.32-20.88-3.12-8.16-3.12-8.16c-4.5-2.08-17.28-3.12-17.28-3.12s5.24,10.27,5.76,14.64S73,251.08,73,251.08A16.17,16.17,0,0,0,86.21,252.28Zm1.68-57.12,7.92,3.6-5.52-5Z"
                            transform="translate(0 0)" />
                          <path class="cls-6"
                            d="M125.81,245.8c-.85-2.79-11.52-3.6-11.52-3.6-4.78,2.7-13.44,3.6-13.44,3.6-.66,2.88,1,6.72,1,6.72C119.08,253.39,126.67,248.59,125.81,245.8Zm-34.32,9.6c-3.93-1.61-7.35,0-11.28.24a15.15,15.15,0,0,1-7.68-2.16s-3.92,7.27-1.44,9.12c4.91,3.65,23.65,1.52,25-.48S95.42,257,91.49,255.4Z"
                            transform="translate(0 0)" />
                          <path class="cls-7"
                            d="M50.45,123.16,65.33,138l4.32-5.28Zm16.32,16.08L73,145.72l.48-2.88L68,138Zm14.88-4.08-2.16,7.2,2.88,5.52,1.44-12.48Z"
                            transform="translate(0 0)" />
                          <path class="cls-8"
                            d="M77.81,141.16l1.44-6-7.92-1-2.16,2.4,5.52,5Zm-.24,1.92-2.64.48-.24,2.88,7.44,7.2v-3.36Z"
                            transform="translate(0 0)" />
                          <g class="cls-9">
                            <path class="cls-10"
                              d="M121,248.2c-4.21,1.05-11.67,2.34-15.36,1.68s-1.2-2.88-1.2-2.88a15.25,15.25,0,0,0,7.2-1.44,8,8,0,0,0,4-3.23c-.81-.09-1.32-.13-1.32-.13-4.78,2.7-13.44,3.6-13.44,3.6-.66,2.88,1,6.72,1,6.72,16.24.82,23.91-3.37,24.06-6.19A17.49,17.49,0,0,1,121,248.2Zm-6.72-97.44c2.46-3.42,6-7.44,6-7.44a9.82,9.82,0,0,1-6-1.83l-6.74,10.23s-.14-2.85-.24-5.28a19.55,19.55,0,0,0-1.09-4.67l-.83,3s0-.14-.06-.37c-.08,2-.26,3.65-.66,2.29-.68-2.33-5-12.78-6.46-16.33h0a203.8,203.8,0,0,1,7.44,27.12S111.84,154.19,114.29,150.76ZM113.81,240l0-.28a40.66,40.66,0,0,1-9.08,2l-3.84-14.16,4.56,2.88a70.67,70.67,0,0,1-3.36-6.48c-1.56-3.49-4.79-5.61-16.32-7.92a60.88,60.88,0,0,1-19.68-7.68L86,196.77l-1-.41s-6.65,3.27-13.44,6.48-15.84,7.44-15.84,7.44c4,3.55,6.23,6,13.2,7.2s17.85,2.53,22.56,3.84a13.14,13.14,0,0,1,7,4.56l-3.12-1.2s.76,2.42,2.16,6.24,3.36,12.72,3.36,12.72C104.73,243.57,113.81,240,113.81,240Zm-30.24-85.2c3.11-3.54,11.28-17.28,11.28-17.28L91.73,134l-6.48.72C85.72,139.94,83.57,154.84,83.57,154.84ZM92.21,140,85,151.72l2.16-11.28Zm-4.32,55.2,7.92,3.6-5.52-5ZM83.81,135.4l-2.16-.24-2.16,7.2,2.88,5.52Zm-3.6,7,.48-1.92,1.92.24-1,4.32Zm-21.6-8.88S44.07,120.75,38,111.88c0,0,.7,13,2.88,21.12ZM85,157c5.41,15.92,6.24,34.32,6.24,34.32l7.68,7.92,2.16,1.2c1.19-3.76,3.36-15.36,3.36-15.36-4.41-9.38.48-18.24.48-18.24a181.08,181.08,0,0,0-3.84-21.12c-1.75-6.56-4.08-14.4-4.08-14.4L94.13,133l3.36,4.56Zm19.2,9.36L103,169c-3.64-8.07-8.09-.37-8.64,9.12s2.59,14.48,4.8,15.36,3.12-1.68,3.12-1.68l-2.16,7.2-7.92-8.4s.18-9.22-1.2-14.88-4.8-18.24-4.8-18.24l12.24-18C101.07,147.76,104.21,166.36,104.21,166.36ZM89.33,190.84a128.85,128.85,0,0,0-6-32.64l-35.52-9.12.48-13.68-9.36-.72a163.47,163.47,0,0,1-2.64-21.36s-9,8.37-12.24,12.48-4.35,8.87-5.52,16.08-2.69,23.54.24,27.6,13.66,5.73,19,7.68A90.8,90.8,0,0,0,46.85,180a24.1,24.1,0,0,1-.59-3.42c-2.93-1.19-10-4.06-13.81-5.22-4.81-1.47-8.08-2.76-6.48-6.24,1-2.25,3.85-4.29,5.7-5.46-4.11,1.07-9.06,4.74-9.06,4.74a16.77,16.77,0,0,1,3.83-4.22L25,160.6c-4.61,1.3-3.12-1.2-3.12-1.2.6-1.35,3.54-2.45,6.05-3.17a35.93,35.93,0,0,0-3.65.29,16.85,16.85,0,0,1,6.44-1.6,20.63,20.63,0,0,0-7.88-.8s.5-6.53,1-11.28S26,129.4,26,129.4l.42-.43a28.19,28.19,0,0,0-3.3-.77,17.23,17.23,0,0,1,4.12-.1l7.88-8.3c.21,2.42.74,7.45,1.28,12.66,3,3.93,3,10.33,2.56,14.46a83.73,83.73,0,0,0-.48,9.36v1.92c3,.05,10.3,4.59,13.92,5.52s3.12,2.64,3.12,2.64a17,17,0,0,1,7-1.68c3.35.13,7.94,2.75,8.16,4.56a15.38,15.38,0,0,1-.48,4.56c2.06.82,1.5,4.29.48,5.76s-2.23,4.56-3.84,4.56a4.41,4.41,0,0,1-2.88-1.44s-1.69,2.83-3.84,2.4S58.37,182,58.37,182a8,8,0,0,1-5.28,1c-2.87-.56-3.36-1.44-3.36-1.44a2.44,2.44,0,0,1-2.88.72c-1.9-.67-11.76-3.84-11.76-3.84s9.14,26.4,11.28,28.8,5.84,2.81,17.52-2.88S89.33,190.84,89.33,190.84Zm-32.16,3.6s5.4-3.87,7-6.72,2.85-1.87,5.28-3.84,4.25-8.55,2.16-11c0,0,.85-2.67.24-4.32s-8-7.45-14.88-3.6a13.21,13.21,0,0,0-5.52-3.12c-3.29-.86-7.09-6.6-8.16-11s-2.64-13.44-2.64-13.44h5.76l-.72,13.2,36.72,9.12s5.77,19.87,5.76,29.28c0,0-19,13-27.84,15.6Zm17.52-52.8,3.12-.48,1.44-6-7.92-1-2.16,2.4Zm3.12-2.88-.48,1.92-2.64.24L73.25,139Zm-.24,4.32-2.64.48-.24,2.88,7.44,7.2v-3.36Zm-1.92,3.6v-2.4h1.44l4.08,6.24.24,1.68Zm-6-13.92-19.2-9.6L65.33,138ZM95.33,260.2c-1.83,1.16-15.86,2.42-19.68,1.44s-1-4.56-1-4.56a17.62,17.62,0,0,0,7.2.48,7.59,7.59,0,0,0,4.73-2.8c-2.09.19-4.17.77-6.41.88a15.15,15.15,0,0,1-7.68-2.16s-3.92,7.27-1.44,9.12c4.91,3.65,23.65,1.52,25-.48A2.93,2.93,0,0,0,96,259,1.42,1.42,0,0,1,95.33,260.2ZM50,134.92l.24,12.24,32.16,8.4c-8.06-6.87-22.56-20.64-22.56-20.64Zm27.6,18-24-6.48,1-5L62,139.72Zm9.84,70.32c-4.5-2.08-17.28-3.12-17.28-3.12s5.24,10.27,5.76,14.64S73,251.08,73,251.08a16.17,16.17,0,0,0,13.2,1.2s.05-.18.12-.51a18.93,18.93,0,0,1-9.24-1.65s3-9.29,2.88-13.44a92.62,92.62,0,0,0-1.68-12l10.46.84C88.05,224.19,87.41,223.24,87.41,223.24ZM68,138l-1.2,1.2L73,145.72l.48-2.88Z"
                              transform="translate(0 0)" />
                          </g>
                        </g>
                        <g id="world_6" data-name="world 6">
                          <path class="cls-11"
                            d="M122.94,195c-.37,0-.76,0-1.14,0a18.29,18.29,0,1,1,19.41-17.13A18.33,18.33,0,0,1,122.94,195Zm0-34.8a16.85,16.85,0,1,0,1,0C123.61,160.18,123.26,160.16,122.92,160.16Z"
                            transform="translate(0 0)" />
                          <ellipse class="cls-11" cx="122.93" cy="176.66" rx="17.42" ry="17.4"
                            transform="translate(-0.43 0.3) rotate(-0.14)" />
                          <path class="cls-12"
                            d="M123.05,161.11a3.41,3.41,0,0,1,1.49.67c.42.42.41.86.95,1.34a2.29,2.29,0,0,0,1.48.73c.48,0-.17-.64,0-1.18s.51-.89,0-1.3-2.29-1.37-3-1.2S122.44,160.9,123.05,161.11Zm2.8,5.83c.39.2,1.24-.18.78-.48S125.46,166.73,125.85,166.94Zm-3.36-6c.3-.24.85-.6.15-.6a13.36,13.36,0,0,0-2.63.56c-.3.1.94.47,1.53.52S122.19,161.18,122.49,160.94Zm.76,14.11c-.3.28.83.51,1.2.3S123.54,174.77,123.25,175.05Zm-2-1.08c-.84-.15-1.48.17-1.35.26s.68,0,1.31.17.55.63,1.55.41C123.15,174.72,122.1,174.13,121.24,174Zm-1.57-11.76c.68-.11-.39-1.12-.82-1S119,162.33,119.67,162.21Zm13.87,19.25a1.71,1.71,0,0,0-1.12-.59,7.11,7.11,0,0,1-2.19-.39c-.52-.26-.31-1.11-.87-1.38s-1.21,0-1.72-.43a4.15,4.15,0,0,0-1.64-1,7.72,7.72,0,0,0-2.78-.22c-.64.15-1,1-1.22.95s-.47-.49-.87-.37-.54.32-.9-.08,0-1.2,0-1.51-.63-.34-1.14-.35-.4-.35-.24-.65.6-.82.49-1-.66,0-.88,0-.17.13-.26.37a1,1,0,0,1-1.1.39,2.08,2.08,0,0,1-.58-1.86c.22-.54.33-.65.46-.95a.88.88,0,0,1,1-.47c.4.17,1,.09,1-.09s.54-.26.86,0,.44,0,.63.24,0,.43.25.78.63.75.52-.22-.67-1.09.39-1.7.55-1.4,1.23-1.92.89-.92,1.42-1.15.83-.23.45-.77.35-.6.82-.84.76-.56.06-1a8.27,8.27,0,0,1-1.5-1.23c-.2-.19-.07.63-.5.52s0-.67-.71-.8-.55.48-.71.67.42.55.11.74c-.48.28-.25,1-.67.92s0-.7-.82-1-1.5-.88-.56-1.44,1.29-.4,1.55-.69-.23-.62.19-.69,1.06.53.61.78.22.45.77.53.92-.47.2-1-.91-.82-1.42-.91-.64-.1-.78.18.33.31.13.54a.32.32,0,0,1-.58-.18c-.07-.32,0-.43-.26-.3s.1.53-.28.52a1.83,1.83,0,0,1-.84-.11c-.43-.15-.51.12-.93-.11s-.36-.59-1.14-.64-.45-.49-.37-.69-.86.1-1.65.38a5.54,5.54,0,0,0-2.16,1.41c-.07.28,1.06-.23,1.27,0a.66.66,0,0,1,0,.89,4,4,0,0,0-.47,1.64c0,.22.08.26,0,.13s-.15-.35-.2-.15.1.76.2.71,0-.34.08-.35.11.53,0,.52-.16-.12-.28,0a9.18,9.18,0,0,0-1.14,1.83,2.28,2.28,0,0,0,0,2,4.09,4.09,0,0,1,.34,1.51,6.52,6.52,0,0,1,.2,1.14c0,.29.26.87.43.84s0-.24-.07-.56-.55-2-.32-2.09.2.46.32,1a16.13,16.13,0,0,0,.86,1.92c.19.46,0,.51,0,.73s.9.94,1.69,1.43.68-.11,1,.15.43.49.75.69c.74.43.91.15,1,.24s0,.29.34.58,0,.34.2.49.26,0,.43.16.66.41.9.6.16,0,.28-.17.27-.26.43-.07a3.76,3.76,0,0,1,.31.58,1.46,1.46,0,0,1,0,.95c-.12.24-.22.1-.39.37s-1.2,1.21-.39,1.27c.14,0,.07.2-.11.26s-.46.37.15,1,.73,1.72,1.47,2.24,1,.28,1.25.86a3.08,3.08,0,0,1-.17,2,14.55,14.55,0,0,0-.26,1.45c-.11.28-.39.45-.5.77s.1.37.13.74-.27.68-.26,1,.16.67.48.6.44-.32.77-.56.51-1.13.84-1.29a4.48,4.48,0,0,1,1.14-.5,2.27,2.27,0,0,0,1.08-.75,14,14,0,0,0,1.34-.65c.59-.42,1.07-1.73,1.66-2a3.42,3.42,0,0,0,1.72-1.12c.52-.71.58-1.8,1.06-2.37S133.8,181.71,133.54,181.46Z"
                            transform="translate(0 0)" />
                          <g class="cls-9">
                            <path class="cls-13"
                              d="M117.37,182.07A22.44,22.44,0,0,1,109,164.13a20.84,20.84,0,0,0-5.37,11.37c-.6,9.59,8.77,19.85,18.37,20.44,6.74.42,14.75-4.75,17.19-10.31C139.21,185.63,126.46,189.22,117.37,182.07Z"
                              transform="translate(0 0)" />
                          </g>
                        </g>
                        <g id="head_6" data-name="head 6">
                          <path class="cls-14"
                            d="M113.33,30.76A8.64,8.64,0,0,0,116.69,24c.07-4.47-8.47-6.52-16.08-13.2S90.6-1.84,60.05.52,36.17,25.34,0,16.5C0,16.5.83,33,17.09,37.24c0,0-2,8.12-1.44,14.16S16.33,63,6.29,62.92c0,0,.71,8.25,10.08,8.4,0,0,1.06,6.88,2.4,14.64s-2.05,16.91-13.2,7.68c0,0,1,10.9,10.32,14.16a21.37,21.37,0,0,0,17-1.44,83.89,83.89,0,0,0,13.92,14.88c8.58,7.16,20.25,14.91,33.36,14.88s18.6-4,24-8.88,11.77-17.7,12.48-23-.39-12.52,0-17.76,1.7-8.49-.24-12c0,0,5.91-11.15,6.48-17.28S117.53,35.85,113.33,30.76Z"
                            transform="translate(0 0)" />
                          <path class="cls-15"
                            d="M111.65,95.08c2.84-4.73,3.5-13.94,3.12-17.28s-4.08-5-4.08-5l3.12.24V68c-2.27,2-2.88,0-2.88,0,3.72-2.13,2.55-7.77.72-13.68s-7-16.32-7-16.32-7.12,6.32-19.92,7.2-32.16,0-32.16,0c.6,16.23-5.76,20.64-5.76,20.64l1.92-6.72a33.05,33.05,0,0,1-6.24,9.6C38.61,72.57,34.85,73,34.85,73c3,3.81,1.2,5.52,1.2,5.52s-5.23-6.71-9.36-6-4.49,4.7-2.16,10.8,3.37,11.45,6.48,12c4.6.82,6.72-3.6,6.72-3.6.5,5.29-3.6,6.24-3.6,6.24.51,8.53,3.43,11,12.48,19.68s24.24,14.64,24.24,14.64a11.06,11.06,0,0,0-2.4-2.88c-1.84-1.71-7.65-3.65-12-8.64a22.25,22.25,0,0,1-5-10.8c3.76,9.11,13.48,14.75,17.52,17.28s4.8,5.76,4.8,5.76a37,37,0,0,0,26.16-5.52c7.23-4.83,12.09-18.21,13.68-22.32s.48-13,.48-13C112.55,95,111.65,95.08,111.65,95.08Z"
                            transform="translate(0 0)" />
                          <path class="cls-16"
                            d="M51.41,65.56c-3.52,7.13,7.44,10.08,7.44,10.08,3.43,3.58,7.77,7.86,13,5a14.58,14.58,0,0,0,6.72-7.2c3.39-2,2.16-6.72,2.16-6.72S54.94,58.44,51.41,65.56Zm55.44-6L92,63.64a9.48,9.48,0,0,0-1.68,4.8c-.07,2.65-.69,5.23,1.44,5.52s7.79,3,10.8,3.84,4-2.38,3.36-5.52C105.89,72.28,113.51,66.77,106.85,59.56ZM92.21,115.24c-6.52-2.32-16.1,8.17-1.2,8.64C99.71,124.16,98.74,117.57,92.21,115.24Z"
                            transform="translate(0 0)" />
                          <path class="cls-17"
                            d="M82.85,18.52S90.63,41.22,108.29,32c0,0-7.9,1.14-14.88-10.56,0,0,9.26,9.81,16.08,8.4s7.5-6.08-1.44-10.8S94.82,4.69,81.89,3.64s-26.26-3-40.32,6S25.36,24.84,3.41,20c0,0,1.85,16.08,33.6,19,0,0-7.63-5-5.52-14.16,0,0,.37,14.3,24,18.72,0,0-14.75-6.15-13.44-20.88,0,0,3.23,22.46,33.36,19.92,0,0-12.83-3-15.84-14.88,0,0,7.73,17.72,32.64,13.2,0,0-12.51-.47-16.56-13,0,0,11.24,16,26.4,8.88C102.05,36.76,86.38,38.11,82.85,18.52Zm29,14.64-5,3.84s6.51,14.6,7.68,20.88a79.65,79.65,0,0,1,1.2,12.48s4.68-8,4.56-14.64S116,38.33,111.89,33.16ZM19.73,38.44c-4.47,14.23,1.11,17.08-2.16,22.32a9.29,9.29,0,0,1-8.64,4.56c4.64,5.53,12.34,3,17-1.68a23.5,23.5,0,0,0,5.52-9.84c-1.1,14.84-12.72,16.56-12.72,16.56C21.3,81.15,23,93.83,19.25,98s-9.84,1.2-9.84,1.2c12.18,13.67,23,4.56,23,4.56a20.12,20.12,0,0,1-1.2-5.52c-2.56.52-4.35-1.32-6-6.48S18,77.17,22.61,71.8s10.56-1.44,10.56-1.44c15.21-6,16.08-25,16.08-25s-8.94-4-15.12-4.08S19.73,38.44,19.73,38.44Z"
                            transform="translate(0 0)" />
                          <g class="cls-3">
                            <path class="cls-4"
                              d="M92.21,40.84a19.94,19.94,0,0,1-10.79-4.31c-3.74.72-7.58,1.28-11.38,1.65C75.11,40.91,82.29,42.64,92.21,40.84Zm-16.8,1.68A25.77,25.77,0,0,1,67,38.44a93.42,93.42,0,0,1-13.56.09C58.41,41.46,65.43,43.37,75.41,42.52Zm-19.92,1a26.51,26.51,0,0,1-8-5.67c-1.25-.23-2.45-.49-3.56-.81A17.75,17.75,0,0,1,31.73,26l-.05.13C32.43,29.73,36.24,39.88,55.49,43.48Zm54-13.68c6.05-1.24,7.25-5.07,1.21-9.21,1.51,4.05-.64,6.92-4.65,9.1A8,8,0,0,0,109.49,29.8ZM108.29,32a10.16,10.16,0,0,1-5-1,62.07,62.07,0,0,1-7.61,2.41C99.12,34.64,103.31,34.57,108.29,32Zm-6.24,4.8a17.64,17.64,0,0,1-9.71-2.56c-2.58.59-5.2,1.14-7.72,1.67A18.16,18.16,0,0,0,102.05,36.76ZM85.41,83c.19.62.32,1,.32,1S86.65,83.39,85.41,83Zm32-16.75s-.8-6-1.92-12.48a46.65,46.65,0,0,0-3.6-11.52s1.24-2.14,2.68-5a28.82,28.82,0,0,0-2.68-4.14l-5,3.84s6.51,14.6,7.68,20.88a79.65,79.65,0,0,1,1.2,12.48A42.29,42.29,0,0,0,118,65.77,5.06,5.06,0,0,1,117.41,66.28ZM31.14,27.35c-1.82,4.65-1.09,7.73-1.09,7.73s-3,.22-11.52-2.88A29.55,29.55,0,0,1,3.66,20L3.41,20S5.26,36,37,38.92C37,38.92,30.81,34.86,31.14,27.35ZM114.77,77.8c-.38-3.34-4.08-5-4.08-5l3.12.24V68c-2.27,2-2.88,0-2.88,0,3.72-2.13,2.55-7.77.72-13.68s-7-16.32-7-16.32-7.12,6.32-19.92,7.2-32.16,0-32.16,0c.6,16.23-5.76,20.64-5.76,20.64l1.92-6.72a33.05,33.05,0,0,1-6.24,9.6C38.61,72.57,34.85,73,34.85,73c3,3.81,1.2,5.52,1.2,5.52s-5.23-6.71-9.36-6-4.49,4.7-2.16,10.8,3.37,11.45,6.48,12c4.6.82,6.72-3.6,6.72-3.6.5,5.29-3.6,6.24-3.6,6.24.51,8.53,3.43,11,12.48,19.68s24.24,14.64,24.24,14.64a11.06,11.06,0,0,0-2.4-2.88c-1.84-1.71-7.65-3.65-12-8.64a22.25,22.25,0,0,1-5-10.8c3.76,9.11,13.48,14.75,17.52,17.28s4.8,5.76,4.8,5.76a37,37,0,0,0,26.16-5.52c7.23-4.83,12.09-18.21,13.68-22.32a17.56,17.56,0,0,0,.84-5.38,95.91,95.91,0,0,1-4.68,10.42c-4.57,9.3-6.68,7.65-8.64,4.32s.58-3.34,2.4-5.28,2.08-6.89,6.24-9.36a13,13,0,0,0,4.54-5.43c-.11-1.35-.22-2.25-.22-2.25-1.5,2.77-2.4,2.88-2.4,2.88C114.49,90.35,115.15,81.14,114.77,77.8ZM34.61,89.32c-1.44-.44-2-3.47-.48-6.48S36.06,89.77,34.61,89.32Zm21.84-39.6s22.13,2.88,31.68,1a61.72,61.72,0,0,0,17.28-6.48l3.36,10.08a19.38,19.38,0,0,0-7.92,1.2c-4.25,1.59-3.93,5-6.72,2.4l2.16-5.28s-5.24,2.94-6.72,7.2-.16,14.68,1.68,18.48,5.69,10.49,2.64,11.52-4.82-1.73-7.44-3.6-6,.24-6,.24,1-3.84,3.84-3.6a6.37,6.37,0,0,1,1.12.19c-.65-2.1-2-7-1.84-9.79.27-3.67,0-11.29-6-15.36,0,0,.42,4.83-5,2.88s-13.32-3.37-18.72-1.68Zm42.48,18s4-4.63,7-4.8,1.2,4.32,1.2,4.32C105.82,64.78,98.93,67.72,98.93,67.72ZM103,75.4c-1.26.24-5.76-1.92-5.76-1.92s5.58-1.5,6.48-1.2S104.28,75.16,103,75.4Zm-33.6,0a47.84,47.84,0,0,0,4.8,1.2,5.09,5.09,0,0,1-4.56,2.88c-3.2-.1-5.52-4.08-5.52-4.08A8.34,8.34,0,0,1,69.41,75.4Zm-13.2-4.08c-2.77-.24-2.94-3.3-.72-4.08,3.4-1.18,12,2.4,12,2.4C63.53,68.29,59,71.57,56.21,71.32Zm-15.12,5c1.44-3.43,7.44-4.8,7.44-4.8s1.64,2.5,3.84,3.12c0,0-4.74,2.87-6.24,5.28A39.47,39.47,0,0,0,44,83.8S39.66,79.8,41.09,76.36Zm-1.2,25.44C38.36,96.9,44,93.16,44,93.16s2.44,9.29,3.36,13a66.16,66.16,0,0,0,3.84,9.6S41.42,106.7,39.89,101.8Zm18-23a11.51,11.51,0,0,0,6,4.08c3.58.78,9.34-.51,11-2.16s4.32-4.08,4.32-4.08a80.45,80.45,0,0,1-5,7.92c-2,2.49-4.31,7.48-9.6,6s-8.82-.11-11,.48S46,79.78,57.89,78.76Zm13.2,46.8c-7.18-5.18-18.37-8.75-15.84-22.56.69-3.76,8.88,3.22,11.76,7s8.47,11.71,9.36,14.4,5.52,5,5.52,5S78.27,130.74,71.09,125.56Zm12.48-4.32c-5.89-4-.78-8.45,7.44-7.44s4.21-1.24,6.72,5.28S89.47,125.22,83.57,121.24Zm-3.12-17s6.78,2.14,10.56,1a17.92,17.92,0,0,0,6.48-3.84s-.58,4.11-7.92,5.28S80.45,104.2,80.45,104.2Zm15.12-6.72c-2.3,1.41-5,3.68-8.64,2.88s-18.48-2.88-18.48-2.88,5-1.12,6-3.84a37.82,37.82,0,0,0,7.2.72c3.47,0,5.14,1.24,7.44,1.44s4.19-2,3.84-3.36,1.83-2.4,4.56-1.2a44.87,44.87,0,0,1,5,2.64S97.88,96.07,95.57,97.48Zm14.88-9.36c-2.93.93-13.73-2.38-15.6-11,0,0,5.38,1.54,7.92,3.36A51,51,0,0,1,108.05,85l-2.64-5.28,4.08-6.24a4.71,4.71,0,0,1,3.84,3.84C114,80.73,113.39,87.2,110.45,88.12Zm-85.2,3.6C23.6,86.57,18,77.17,22.61,71.8s10.56-1.44,10.56-1.44c15.21-6,16.08-25,16.08-25s-8.94-4-15.12-4.08-14.4-2.88-14.4-2.88c-4.47,14.23,1.11,17.08-2.16,22.32a9.29,9.29,0,0,1-8.64,4.56c4.64,5.53,12.34,3,17-1.68a23.5,23.5,0,0,0,5.52-9.84c-1.1,14.84-12.72,16.56-12.72,16.56C21.3,81.15,23,93.83,19.25,98s-9.84,1.2-9.84,1.2c12.18,13.67,23,4.56,23,4.56a20.12,20.12,0,0,1-1.2-5.52C28.69,98.72,26.9,96.88,25.25,91.72ZM17.57,67s5.11-1.86,5-8.4S22.06,48,23.81,43.48l7.44,2.4S31.08,64.23,17.57,67Zm19.2-20.64,10.08,2.88s-1.47,14.67-14.64,18C32.21,67.24,40.28,59.87,36.77,46.36Z"
                              transform="translate(0 0)" />
                          </g>
                          <path class="cls-18"
                            d="M70,82c-1.06.55-1.79.89-1.79.89A10.66,10.66,0,0,0,70,82ZM58.85,77.08a11.24,11.24,0,0,0,7.2,3.6s-4-2.46-5-5.28c0,0,1.77-1.36,5.76-1.44s9.12,1.92,9.12,1.92A19.67,19.67,0,0,1,70,82c2.79-1.44,7.94-4.29,8.53-6.07.82-2.44-1.68-1.92-1.68-1.92s1.78-1.53-5.28-6c0,0,4.76.29,7.2,1.44s3.29-.6,3.12-3.12S78.05,61,78.05,61s-.35,2.32-3.36,2.16c-8.07-.41-10.59-3.64-16.8-2.88S50.81,63,48.77,67.72A12.56,12.56,0,0,1,58.37,66C63.91,67.33,72,69.51,74,73c0,0-6.46-4.69-13.2-.48-4.54,2.84-7.4.4-9.6-2.4,0,0-1.18,3.52,5.52,5.28,0,0-7.38.39-9.84,7.44C45.72,86.1,50.93,93.4,50.93,93.4s-2.93-7-1.68-9.84S53.63,77.67,58.85,77.08Zm43.68,11.76c-4.13-.71-7.44-4.32-7.44-4.32-1.77-2.8-2.88-9.6-2.88-9.6L103,78.76,93.89,73s7.55-1.39,9.84-1.92,1.68,3.12,1.68,3.12c2.69-2.39,3.47-5.34-.24-5.76S94.61,70.6,94.61,70.6c.67-2.32,4.32-4.8,4.32-4.8-4,0-7.68,4.8-7.68,4.8L91.49,68c7-5.2,20.16-7.44,20.16-7.44-4.15-8.77-13.26-1.45-16.08-.48s-2.88-1.44-2.88-1.44-2.78,1-3.36,6.24,1,12.84,2.64,17.76,2.82,7.13,0,7.68-3.8.92-5.28-1-5.52-1.2-5.52-1.2l3.36,2.16s-5.86-.55-6-3.12a3.91,3.91,0,0,1,2.4-3.6c-3.54-1.66-5.28,3.24-4.32,6A4.1,4.1,0,0,0,80.45,92c4.16-.25,3.93,1.06,9.84,1s5.52-4.08,5.52-4.08c3.71,3.46,11.71,3.26,11,5s-7.41,2.76-11.76,5.52-7.59,2.38-12.72,1.92a167.38,167.38,0,0,1-17.28-2.64c-2.88-.71-2,3.72.24,2.88s12.32,1.07,19.44,2.4,8.83-1.5,12-3.36,12.28-2.56,12.48-5.52S106.67,89.56,102.53,88.84ZM74,88.6c-2,3.91-6.43,4.24-10.08,4.56s-5.24,2.34-5.28,5,1.74,2,2.64,0,1.13-1.51,6.48-3.12A8.89,8.89,0,0,0,74,88.6Zm14.64,21.6c6.89-1.58,7-5,7-5C90.25,109.74,80.69,108,80.69,108S81.73,111.79,88.61,110.2Zm-25.2-5.28c4.25,3.4,11.76,11.28,11.76,11.28S74.94,114,71.33,110A17,17,0,0,0,63.41,104.92Zm35.52,2.64c-2.3,1.38-4,.5-4.56,4.8S97,116.71,97.73,120s-.39,6.68-7,7.44a19.75,19.75,0,0,1-12-2.88c14.09,10.35,21.28,1.78,21.84-2.4s-3.44-6.51-3.84-9.12,2.1-3,4.32-4.56,2.64-7.44,2.64-7.44S101.24,106.19,98.93,107.56ZM32.69,82.36c-.35-2.92-3.88-7-5.52-5.52s.24,6.72.24,6.72c-.75-4,1.14-5.23,2.64-2.16s-1.24,5.69,0,7.68,4.08,1.2,4.08,1.2C29.71,87.48,33.05,85.28,32.69,82.36Z"
                            transform="translate(0 0)" />
                          <path class="cls-19"
                            d="M91,15.88s7.83,8.58,11,8.88,5-4.32,5-4.32a129.26,129.26,0,0,1-13.2-10.08C88.75,5.63,83.25,5.94,66.53,5.08a38.26,38.26,0,0,0-27.12,9.36c12.67-4.09,18.72,14.4,18.72,14.4-.55-2.43.48-6.24.48-6.24a17.56,17.56,0,0,0,4.32,6.24C68,31.09,74.45,30,74.45,30,72.77,27.14,74,19.48,74,19.48c.28,5.75,6,10.32,6,10.32l5.52-.48a23.4,23.4,0,0,1-3.12-7.44,10.55,10.55,0,0,1,1-7.68,24.19,24.19,0,0,0,6.72,13.68l5.52-1.2C92.3,23.84,91,15.88,91,15.88Z"
                            transform="translate(0 0)" />
                          <path class="cls-20"
                            d="M78.53,63.64s-1.19,1.75-6.72.48-15.4-4.72-18.72-.24a18.85,18.85,0,0,1,9.6,1c5.55,1.92,11.19,1.14,13.92,2.4S82,66.77,78.53,63.64Z"
                            transform="translate(0 0)" />
                          <path class="cls-20"
                            d="M103.49,58.36C99,60.13,93.53,63.67,92,61.72l-.24,4.08s9-5.24,15.84-6.24C107.57,59.56,108,56.6,103.49,58.36Z"
                            transform="translate(0 0)" />
                          <path class="cls-21"
                            d="M109.25,183.63c-4.34-8.41,1-18.71,1-18.71s-8.26,9.2-2.68,19.72c6.59,12.43,19.67,8.16,19.67,8.16C123.35,193.48,113.58,192.05,109.25,183.63Z"
                            transform="translate(0 0)" />
                          <path class="cls-21"
                            d="M26.69,73.48s-2.5-.33-2.64,2.88.75,5,1.68,7.68,2.08,5.19,2.88,7.68,2.17,3.33,4.8,2.16A7.12,7.12,0,0,1,29.57,91a42.09,42.09,0,0,1-3.84-10.8C25,76.58,24.69,74,26.69,73.48Zm27.6,19.44a12.55,12.55,0,0,1-3.6-6.72c-.86-4.38,2.16-5.52,2.16-5.52-3.75,1.13-4.29,6.28-1.92,9.84S54.29,92.92,54.29,92.92Zm-5.76,25a37.8,37.8,0,0,0,9.84,7S36.48,108.49,37.73,97.48l-2.64,1.2A10.71,10.71,0,0,0,38,106.84C41.43,110.35,44.51,113.66,48.53,117.88ZM20.45,52.36A21.39,21.39,0,0,1,22.37,40.6L20,39.88l-1,8.64c-.39,3.59.53,5.92.48,11S12.05,66,12.05,66C22.19,66.79,21.16,59.44,20.45,52.36Zm-.72,52.56c-2.68-1.17-2.88-2.4-2.88-2.4,7.58-.7,6.72-9.12,6.72-9.12l-1.2-6s0,8.69-2.4,11.76-7,1.68-7,1.68A7.77,7.77,0,0,0,19.73,104.92Zm7-69.12S12.63,31.92,8.45,22.6L4.61,20.92a19.73,19.73,0,0,0,9.84,10.8C21.91,35.18,26.69,35.8,26.69,35.8ZM28.37,122a65.65,65.65,0,0,0-4.32,5h2.4c2.92-4.36,8.64-8.88,8.64-8.88l-.24-2.4S30.54,119.73,28.37,122Zm11.52-2.4s.6,7.18,1.44,12.24l7.92.72-6.48-1.68Zm11,19V146L61,148.6,52.37,145Zm-28.08,31c-.56-1.53,1.44-4.8,1.44-4.8s-2,1.58-3.12,2.64-1.51-1.18-1-2.64a6,6,0,0,1,1.92-2.4s-2.59,1.11-2.4-1.92,3.36-4.8,3.36-4.8l-2.64-.24a154.29,154.29,0,0,1,3.6-25.44c-.86-.6-1.92.24-1.92.24-4.37,11.26-4.22,24.26-4.32,30.48s1.1,8.67,4.8,10.8,22.32,7.2,22.32,7.2S23.41,171,22.85,169.48ZM48.05,204c-2-3.62-7.92-22.8-7.92-22.8L37.25,180c4.63,15.14,7.9,25,10.56,27.12s6.48.48,6.48.48A7.5,7.5,0,0,1,48.05,204Zm42.24,14.64c-4.71-1.51-24-1.38-30.24-8.64l-2.16.72a18.69,18.69,0,0,0,7.68,5c4.5,1.37,25.36,2,31.44,7.44A13.11,13.11,0,0,0,90.29,218.68ZM99.17,228l-2.4-1.68a154,154,0,0,1,4.56,16.08l1-.48Zm-27.84-6.72s5.37,9.36,5.52,13.68S74,250.12,74,250.12c1.39.77,3.36,1.68,3.36,1.68a3.57,3.57,0,0,1-1.92-2.4s3.17-11.09,3.36-13.92S74.21,222,74.21,222Z"
                            transform="translate(0 0)" />
                          <path class="cls-22"
                            d="M103.25,249.64c-1.72-2.18,0-3.12,0-3.12l-1.68.24c-.25,2.25,0,4.44.72,4.8s7,.24,7,.24S105,251.82,103.25,249.64Zm-31,8.88c.35-2.68,1.92-3.12,1.92-3.12l-1.44-.72s-2.81,3.79-1.92,6,4.56,2.88,4.56,2.88A4.32,4.32,0,0,1,72.29,258.52Z"
                            transform="translate(0 0)" />
                        </g>
                      </g>
                    </g>
                  </svg>